<svg width="25" height="25" viewBox="0 0 25 25" fill="none" xmlns="http://www.w3.org/2000/svg">
<path d="M3.61133 1.26953C1.89271 1.26953 0.769043 2.39806 0.769043 3.88136C0.769043 5.3319 1.85924 6.49261 3.54538 6.49261H3.57799C5.33023 6.49261 6.42071 5.3319 6.42071 3.88136C6.38795 2.39806 5.33023 1.26953 3.61133 1.26953Z" fill="white"/>
<path d="M1.06592 8.55664H6.09016V23.6723H1.06592V8.55664Z" fill="white"/>
<path d="M18.4224 8.20166C15.712 8.20166 13.8945 10.7485 13.8945 10.7485V8.55643H8.87012V23.6721H13.8942V15.2309C13.8942 14.779 13.927 14.3278 14.0597 14.0047C14.4229 13.1023 15.2495 12.1675 16.6375 12.1675C18.4555 12.1675 19.1827 13.5536 19.1827 15.5857V23.6721H24.2065V15.005C24.2065 10.3622 21.7277 8.20166 18.4224 8.20166Z" fill="white"/>
</svg>
