<svg width="199" height="41" viewBox="0 0 199 41" fill="none" xmlns="http://www.w3.org/2000/svg">
<path d="M17.4736 39.9184L30.3164 31.3585L43.1522 39.9184L30.3164 0L17.4736 39.9184Z" fill="white"/>
<path d="M-3.71077e-05 8.20905L17.2027 39.155L11.0583 12.0435L-3.71077e-05 8.20905Z" fill="white"/>
<path d="M61 8.20905L43.7973 39.155L49.9417 12.0435L61 8.20905Z" fill="white"/>
<path d="M108.348 9.32398V9.99927C107.898 10.1118 107.414 10.4157 106.896 10.9109C106.378 11.3836 105.939 12.1827 105.579 13.3082L99.3664 33.3644C99.2764 33.3644 99.1751 33.3644 99.0625 33.3644C98.9725 33.3644 98.8824 33.3644 98.7924 33.3644C98.6798 33.3644 98.5786 33.3644 98.4885 33.3644C98.3985 33.3644 98.3084 33.3644 98.2184 33.3644L91.0603 12.0589C90.7902 11.2261 90.475 10.6858 90.1149 10.4382C89.7772 10.1681 89.4508 10.0218 89.1357 9.99927V9.32398C89.6084 9.34649 90.1937 9.369 90.8915 9.39151C91.5893 9.41402 92.2646 9.42527 92.9173 9.42527C93.8402 9.42527 94.6956 9.41402 95.4835 9.39151C96.2938 9.369 96.9353 9.34649 97.408 9.32398V9.99927C96.7327 10.0218 96.1925 10.1006 95.7873 10.2356C95.4047 10.3482 95.1796 10.5958 95.112 10.9784C95.067 11.3611 95.1796 11.9801 95.4497 12.8355L100.413 28.0972L99.8391 28.84L104.093 15.4354C104.544 14.0398 104.746 12.9593 104.701 12.194C104.679 11.4061 104.42 10.8546 103.925 10.5395C103.452 10.2019 102.754 10.0218 101.831 9.99927V9.32398C102.507 9.34649 103.182 9.369 103.857 9.39151C104.532 9.41402 105.185 9.42527 105.815 9.42527C106.378 9.42527 106.851 9.41402 107.234 9.39151C107.639 9.369 108.01 9.34649 108.348 9.32398ZM84.5775 9.32398V9.99927C84.0372 10.0443 83.6546 10.1793 83.4295 10.4044C83.2044 10.607 83.0918 10.9109 83.0918 11.3161C83.1143 11.6988 83.2269 12.2052 83.4295 12.8355L88.663 28.4686L87.7851 29.4477L92.3771 15.1653L92.8836 16.0094L87.3799 33.3644C87.2899 33.3644 87.1998 33.3644 87.1098 33.3644C87.0198 33.3644 86.9185 33.3644 86.8059 33.3644C86.7159 33.3644 86.6146 33.3644 86.502 33.3644C86.412 33.3644 86.322 33.3644 86.2319 33.3644L78.9387 12.1602C78.6461 11.3048 78.286 10.7421 77.8583 10.472C77.4306 10.1793 77.0367 10.0218 76.6765 9.99927V9.32398C77.2167 9.34649 77.8583 9.369 78.6011 9.39151C79.3439 9.41402 80.0642 9.42527 80.762 9.42527C81.5724 9.42527 82.304 9.41402 82.9567 9.39151C83.632 9.369 84.1723 9.34649 84.5775 9.32398Z" fill="white"/>
<path d="M118.506 15.3341C119.159 15.3341 119.711 15.4692 120.161 15.7393C120.633 16.0094 120.982 16.3583 121.207 16.786C121.455 17.1912 121.579 17.6526 121.579 18.1703C121.579 18.8231 121.376 19.3859 120.971 19.8586C120.588 20.3088 120.071 20.5339 119.418 20.5339C118.855 20.5339 118.371 20.365 117.966 20.0274C117.583 19.6897 117.392 19.2283 117.392 18.643C117.392 18.1478 117.516 17.7314 117.763 17.3937C118.034 17.0336 118.337 16.7522 118.675 16.5496C118.45 16.3695 118.18 16.2908 117.865 16.3133C117.257 16.3358 116.694 16.5384 116.176 16.921C115.659 17.2812 115.22 17.7539 114.86 18.3392C114.499 18.9019 114.218 19.5097 114.016 20.1624C113.813 20.8152 113.712 21.423 113.712 21.9857V29.7516C113.712 30.8546 114.016 31.5974 114.623 31.9801C115.231 32.3403 116.075 32.5203 117.156 32.5203V33.2294C116.638 33.2069 115.895 33.1844 114.927 33.1619C113.982 33.1168 112.98 33.0943 111.922 33.0943C111.112 33.0943 110.301 33.1168 109.491 33.1619C108.681 33.1844 108.062 33.2069 107.634 33.2294V32.5203C108.512 32.5203 109.131 32.3515 109.491 32.0139C109.874 31.6762 110.065 31.0347 110.065 30.0893V19.4872C110.065 18.4742 109.896 17.7314 109.559 17.2587C109.221 16.7635 108.579 16.5159 107.634 16.5159V15.8068C108.354 15.8743 109.052 15.9081 109.727 15.9081C110.493 15.9081 111.202 15.8743 111.855 15.8068C112.53 15.7168 113.149 15.593 113.712 15.4354V19.3183C113.982 18.6655 114.342 18.0353 114.792 17.4275C115.242 16.8197 115.783 16.3245 116.413 15.9419C117.043 15.5367 117.741 15.3341 118.506 15.3341Z" fill="white"/>
<path d="M126.952 7.2981C127.65 7.2981 128.235 7.52319 128.708 7.97339C129.181 8.40108 129.417 8.94131 129.417 9.59409C129.417 10.2469 129.181 10.7984 128.708 11.2486C128.235 11.6763 127.65 11.8901 126.952 11.8901C126.255 11.8901 125.669 11.6763 125.197 11.2486C124.724 10.7984 124.488 10.2469 124.488 9.59409C124.488 8.94131 124.724 8.40108 125.197 7.97339C125.669 7.52319 126.255 7.2981 126.952 7.2981ZM128.978 15.4354V30.0893C128.978 31.0347 129.158 31.6762 129.519 32.0139C129.901 32.3515 130.531 32.5203 131.409 32.5203V33.2294C131.027 33.2069 130.43 33.1844 129.62 33.1619C128.832 33.1168 128.022 33.0943 127.189 33.0943C126.401 33.0943 125.591 33.1168 124.758 33.1619C123.925 33.1844 123.306 33.2069 122.901 33.2294V32.5203C123.779 32.5203 124.398 32.3515 124.758 32.0139C125.14 31.6762 125.332 31.0347 125.332 30.0893V19.4872C125.332 18.4742 125.163 17.7314 124.825 17.2587C124.488 16.7635 123.846 16.5159 122.901 16.5159V15.8068C123.621 15.8743 124.319 15.9081 124.994 15.9081C125.759 15.9081 126.468 15.8743 127.121 15.8068C127.797 15.7168 128.416 15.593 128.978 15.4354Z" fill="white"/>
<path d="M138.932 10.2356V15.8406H143.592V16.5159H138.932V29.7854C138.932 30.7083 139.101 31.3611 139.439 31.7437C139.776 32.1264 140.26 32.3177 140.891 32.3177C141.476 32.3177 141.994 32.0814 142.444 31.6087C142.917 31.136 143.322 30.3369 143.659 29.2114L144.301 29.4477C144.031 30.6408 143.547 31.6537 142.849 32.4866C142.174 33.2969 141.172 33.7021 139.844 33.7021C139.079 33.7021 138.437 33.6008 137.919 33.3982C137.402 33.2181 136.951 32.948 136.569 32.5879C136.074 32.0701 135.736 31.4511 135.556 30.7308C135.376 30.0105 135.286 29.0538 135.286 27.8608V16.5159H132.179V15.8406H135.286V10.9109C135.984 10.8884 136.636 10.8321 137.244 10.7421C137.852 10.6295 138.415 10.4607 138.932 10.2356Z" fill="white"/>
<path d="M148.979 7.2981C149.676 7.2981 150.262 7.52319 150.734 7.97339C151.207 8.40108 151.443 8.94131 151.443 9.59409C151.443 10.2469 151.207 10.7984 150.734 11.2486C150.262 11.6763 149.676 11.8901 148.979 11.8901C148.281 11.8901 147.696 11.6763 147.223 11.2486C146.75 10.7984 146.514 10.2469 146.514 9.59409C146.514 8.94131 146.75 8.40108 147.223 7.97339C147.696 7.52319 148.281 7.2981 148.979 7.2981ZM151.005 15.4354V30.0893C151.005 31.0347 151.185 31.6762 151.545 32.0139C151.927 32.3515 152.558 32.5203 153.436 32.5203V33.2294C153.053 33.2069 152.456 33.1844 151.646 33.1619C150.858 33.1168 150.048 33.0943 149.215 33.0943C148.427 33.0943 147.617 33.1168 146.784 33.1619C145.951 33.1844 145.332 33.2069 144.927 33.2294V32.5203C145.805 32.5203 146.424 32.3515 146.784 32.0139C147.167 31.6762 147.358 31.0347 147.358 30.0893V19.4872C147.358 18.4742 147.189 17.7314 146.851 17.2587C146.514 16.7635 145.872 16.5159 144.927 16.5159V15.8068C145.647 15.8743 146.345 15.9081 147.02 15.9081C147.786 15.9081 148.495 15.8743 149.147 15.8068C149.823 15.7168 150.442 15.593 151.005 15.4354Z" fill="white"/>
<path d="M161.33 15.3341C162.23 15.3341 163.007 15.4804 163.66 15.773C164.335 16.0432 164.819 16.2908 165.112 16.5159C165.854 17.1011 166.316 16.7184 166.496 15.3679H167.239C167.194 15.9981 167.16 16.7635 167.137 17.6639C167.115 18.5417 167.104 19.7123 167.104 21.1754H166.361C166.226 20.3425 165.989 19.5322 165.652 18.7443C165.337 17.9565 164.864 17.3037 164.234 16.786C163.626 16.2683 162.827 16.0094 161.836 16.0094C161.094 16.0094 160.475 16.2232 159.979 16.6509C159.484 17.0561 159.236 17.6639 159.236 18.4742C159.236 19.1495 159.439 19.7348 159.844 20.23C160.249 20.7252 160.767 21.1866 161.397 21.6143C162.05 22.042 162.748 22.5035 163.491 22.9987C164.324 23.5614 165.067 24.1242 165.719 24.6869C166.395 25.2272 166.924 25.8349 167.306 26.5102C167.711 27.1855 167.914 27.9734 167.914 28.8737C167.914 29.9092 167.633 30.7871 167.07 31.5074C166.53 32.2277 165.809 32.7792 164.909 33.1619C164.009 33.522 163.018 33.7021 161.938 33.7021C161.397 33.7021 160.891 33.6458 160.418 33.5333C159.946 33.4432 159.507 33.3194 159.101 33.1619C158.854 33.0268 158.606 32.8917 158.359 32.7567C158.134 32.5991 157.908 32.4528 157.683 32.3177C157.458 32.1602 157.256 32.1827 157.076 32.3853C156.895 32.5879 156.76 32.948 156.67 33.4657H155.928C155.973 32.7454 156.006 31.8675 156.029 30.8321C156.051 29.7966 156.063 28.4235 156.063 26.7128H156.805C156.963 27.9508 157.199 29.0426 157.514 29.988C157.83 30.9334 158.291 31.6762 158.899 32.2164C159.529 32.7342 160.384 32.993 161.465 32.993C161.893 32.993 162.32 32.903 162.748 32.7229C163.176 32.5203 163.525 32.2052 163.795 31.7775C164.087 31.3498 164.234 30.7758 164.234 30.0555C164.234 29.0651 163.885 28.2547 163.187 27.6244C162.512 26.9717 161.634 26.2851 160.553 25.5648C159.788 25.0246 159.056 24.4956 158.359 23.9779C157.683 23.4376 157.132 22.8411 156.704 22.1883C156.276 21.513 156.063 20.7139 156.063 19.791C156.063 18.7781 156.299 17.9452 156.772 17.2924C157.267 16.6397 157.92 16.1557 158.73 15.8406C159.54 15.5029 160.407 15.3341 161.33 15.3341Z" fill="white"/>
<path d="M176.225 10.2356V15.8406H180.885V16.5159H176.225V29.7854C176.225 30.7083 176.394 31.3611 176.732 31.7437C177.069 32.1264 177.553 32.3177 178.184 32.3177C178.769 32.3177 179.286 32.0814 179.737 31.6087C180.209 31.136 180.615 30.3369 180.952 29.2114L181.594 29.4477C181.324 30.6408 180.84 31.6537 180.142 32.4866C179.467 33.2969 178.465 33.7021 177.137 33.7021C176.371 33.7021 175.73 33.6008 175.212 33.3982C174.694 33.2181 174.244 32.948 173.862 32.5879C173.366 32.0701 173.029 31.4511 172.849 30.7308C172.669 30.0105 172.579 29.0538 172.579 27.8608V16.5159H169.472V15.8406H172.579V10.9109C173.276 10.8884 173.929 10.8321 174.537 10.7421C175.145 10.6295 175.707 10.4607 176.225 10.2356Z" fill="white"/>
<path d="M186.981 33.4657C186.035 33.4657 185.225 33.2857 184.549 32.9255C183.874 32.5654 183.368 32.0701 183.03 31.4399C182.692 30.8096 182.524 30.0893 182.524 29.2789C182.524 28.2885 182.749 27.4894 183.199 26.8816C183.649 26.2514 184.223 25.7449 184.921 25.3622C185.641 24.9795 186.395 24.6644 187.183 24.4168C187.993 24.1467 188.748 23.8991 189.445 23.674C190.166 23.4264 190.751 23.145 191.201 22.8299C191.674 22.5147 191.91 22.0983 191.91 21.5806V19.2846C191.91 18.4742 191.775 17.8327 191.505 17.36C191.257 16.8648 190.908 16.5159 190.458 16.3133C190.031 16.1107 189.513 16.0094 188.905 16.0094C188.387 16.0094 187.836 16.0882 187.251 16.2457C186.665 16.3808 186.204 16.6622 185.866 17.0899C186.362 17.2249 186.767 17.495 187.082 17.9002C187.419 18.2829 187.588 18.7668 187.588 19.3521C187.588 19.9824 187.374 20.4776 186.947 20.8377C186.542 21.1979 186.024 21.378 185.394 21.378C184.696 21.378 184.178 21.1641 183.84 20.7364C183.503 20.2863 183.334 19.7685 183.334 19.1833C183.334 18.5755 183.48 18.0803 183.773 17.6976C184.088 17.315 184.493 16.9548 184.988 16.6172C185.529 16.257 186.215 15.9531 187.048 15.7055C187.903 15.4579 188.849 15.3341 189.884 15.3341C190.852 15.3341 191.685 15.4466 192.383 15.6717C193.103 15.8743 193.7 16.212 194.172 16.6847C194.735 17.2024 195.107 17.8552 195.287 18.643C195.467 19.4084 195.557 20.3425 195.557 21.4455V30.7646C195.557 31.3273 195.624 31.7325 195.759 31.9801C195.917 32.2052 196.165 32.3177 196.502 32.3177C196.727 32.3177 196.941 32.2615 197.144 32.1489C197.369 32.0364 197.628 31.8675 197.92 31.6424L198.258 32.2164C197.785 32.5991 197.301 32.903 196.806 33.1281C196.333 33.3532 195.726 33.4657 194.983 33.4657C194.262 33.4657 193.677 33.3532 193.227 33.1281C192.777 32.903 192.439 32.5766 192.214 32.1489C192.011 31.7212 191.91 31.1923 191.91 30.562C191.325 31.5074 190.627 32.2277 189.817 32.7229C189.006 33.2181 188.061 33.4657 186.981 33.4657ZM188.601 31.845C189.232 31.845 189.817 31.665 190.357 31.3048C190.92 30.9446 191.437 30.4044 191.91 29.6841V22.9649C191.663 23.3251 191.302 23.6402 190.83 23.9103C190.357 24.1579 189.851 24.4168 189.31 24.6869C188.77 24.957 188.252 25.2722 187.757 25.6323C187.284 25.97 186.89 26.4089 186.575 26.9492C186.26 27.4894 186.103 28.1759 186.103 29.0088C186.103 29.8867 186.328 30.5845 186.778 31.1022C187.228 31.5974 187.836 31.845 188.601 31.845Z" fill="white"/>
</svg>
