<svg width="30" height="30" viewBox="0 0 30 30" fill="none" xmlns="http://www.w3.org/2000/svg">
<path d="M27.1338 14.1161L17.1337 4.11614C16.959 3.94133 16.7362 3.82227 16.4938 3.77403C16.2513 3.72579 16 3.75053 15.7716 3.84513C15.5432 3.93972 15.348 4.09993 15.2107 4.30547C15.0733 4.51102 15 4.75268 15 4.99989V9.43104C11.5854 9.7471 8.41157 11.326 6.09966 13.8587C3.78775 16.3914 2.50414 19.6957 2.5 23.1249V24.9999C2.49998 25.2595 2.58078 25.5126 2.73119 25.7242C2.8816 25.9358 3.09415 26.0953 3.33933 26.1806C3.58452 26.2659 3.85018 26.2727 4.09942 26.2002C4.34867 26.1276 4.56914 25.9792 4.73022 25.7757C5.95478 24.3193 7.45729 23.1216 9.14996 22.2526C10.8426 21.3835 12.6915 20.8604 14.5886 20.714C14.6509 20.7061 14.8071 20.6939 15 20.6817V24.9999C15 25.2471 15.0733 25.4888 15.2107 25.6943C15.348 25.8999 15.5432 26.0601 15.7716 26.1547C16 26.2493 16.2513 26.274 16.4938 26.2258C16.7362 26.1775 16.959 26.0585 17.1337 25.8836L27.1338 15.8836C27.2498 15.7676 27.3419 15.6298 27.4048 15.4782C27.4676 15.3266 27.4999 15.164 27.4999 14.9999C27.4999 14.8358 27.4676 14.6732 27.4048 14.5216C27.3419 14.37 27.2498 14.2322 27.1338 14.1161ZM17.5 21.9823V19.3749C17.5 19.2107 17.4677 19.0482 17.4049 18.8965C17.3421 18.7448 17.2501 18.607 17.134 18.4909C17.0179 18.3748 16.8801 18.2828 16.7284 18.22C16.5767 18.1572 16.4142 18.1249 16.25 18.1249C15.9314 18.1249 14.6301 18.1865 14.2981 18.2311C10.9288 18.5415 7.7217 19.8215 5.0647 21.9164C5.36611 19.1593 6.67397 16.6103 8.73783 14.7575C10.8017 12.9047 13.4765 11.8783 16.25 11.8749C16.4142 11.8749 16.5767 11.8426 16.7284 11.7798C16.8801 11.717 17.0179 11.625 17.134 11.5089C17.2501 11.3928 17.3421 11.255 17.4049 11.1033C17.4677 10.9516 17.5 10.7891 17.5 10.6249V8.01747L24.4824 14.9999L17.5 21.9823Z" fill="black"/>
</svg>
