<svg width="25" height="25" viewBox="0 0 25 25" fill="none" xmlns="http://www.w3.org/2000/svg">
<g clip-path="url(#clip0_1_253)">
<path fill-rule="evenodd" clip-rule="evenodd" d="M20.7904 4.17509C18.5977 1.97983 15.6816 0.77033 12.575 0.769043C6.17344 0.769043 0.963518 5.97882 0.960943 12.3821C0.960085 14.429 1.49481 16.4271 2.51119 18.1884L0.863525 24.2065L7.0203 22.5915C8.71675 23.5169 10.6266 24.0046 12.5703 24.0051H12.5751C18.9759 24.0051 24.1864 18.7949 24.1889 12.3914C24.1902 9.28802 22.9832 6.37021 20.7904 4.17509ZM12.575 22.0437H12.571C10.8389 22.043 9.14018 21.5775 7.65788 20.6982L7.30555 20.4889L3.65202 21.4474L4.6272 17.8853L4.3976 17.52C3.43129 15.9831 2.92103 14.2067 2.92189 12.3828C2.92389 7.06057 7.25434 2.73056 12.5788 2.73056C15.1572 2.73142 17.5809 3.73678 19.4034 5.5614C21.2259 7.38602 22.2289 9.8113 22.2281 12.3907C22.2258 17.7133 17.8956 22.0437 12.575 22.0437ZM17.8699 14.8141C17.5798 14.6687 16.153 13.9669 15.8869 13.87C15.6211 13.7731 15.4274 13.7249 15.2342 14.0153C15.0406 14.3057 14.4846 14.9594 14.3152 15.153C14.1458 15.3467 13.9767 15.371 13.6865 15.2256C13.3962 15.0804 12.4613 14.7739 11.3528 13.7853C10.4902 13.0158 9.90779 12.0655 9.73842 11.7751C9.56933 11.4844 9.73699 11.3425 9.86573 11.1829C10.1799 10.7928 10.4944 10.3838 10.5911 10.1902C10.688 9.99656 10.6395 9.82704 10.5668 9.68184C10.4944 9.53665 9.91409 8.10828 9.67233 7.52706C9.43658 6.96144 9.19754 7.03783 9.0193 7.02896C8.85021 7.02052 8.65667 7.0188 8.46312 7.0188C8.26971 7.0188 7.95529 7.09133 7.68921 7.38201C7.42328 7.67255 6.67369 8.3745 6.67369 9.80286C6.67369 11.2312 7.71353 12.6111 7.85858 12.8048C8.00364 12.9985 9.90493 15.9296 12.8159 17.1864C13.5082 17.4857 14.0487 17.6641 14.4703 17.7978C15.1655 18.0187 15.7979 17.9875 16.298 17.9129C16.8556 17.8295 18.0148 17.2108 18.2568 16.533C18.4986 15.8551 18.4986 15.2741 18.4259 15.153C18.3535 15.032 18.16 14.9594 17.8699 14.8141Z" fill="white"/>
</g>
<defs>
<clipPath id="clip0_1_253">
<rect width="25" height="25" fill="white"/>
</clipPath>
</defs>
</svg>
